<svg xmlns="http://www.w3.org/2000/svg"   width="25pt" height="25pt" viewBox="0 0 25 25">
    <defs>
        <symbol id="add">
           <path style=" stroke:none;fill-rule:nonzero;fill:#fff;fill-opacity:1;" d="M 22.769531 10.269531 L 15.179688 10.269531 C 14.933594 10.269531 14.730469 10.066406 14.730469 9.820312 L 14.730469 2.230469 C 14.730469 1 13.734375 0 12.5 0 C 11.265625 0 10.269531 1 10.269531 2.230469 L 10.269531 9.820312 C 10.269531 10.066406 10.066406 10.269531 9.820312 10.269531 L 2.230469 10.269531 C 1 10.269531 0 11.265625 0 12.5 C 0 13.734375 1 14.730469 2.230469 14.730469 L 9.820312 14.730469 C 10.066406 14.730469 10.269531 14.933594 10.269531 15.179688 L 10.269531 22.769531 C 10.269531 24 11.265625 25 12.5 25 C 13.734375 25 14.730469 24 14.730469 22.769531 L 14.730469 15.179688 C 14.730469 14.933594 14.933594 14.730469 15.179688 14.730469 L 22.769531 14.730469 C 24 14.730469 25 13.734375 25 12.5 C 25 11.265625 24 10.269531 22.769531 10.269531 Z M 22.769531 10.269531 "/>
        </symbol>
    </defs>
</svg> 